<svg xmlns="http://www.w3.org/2000/svg" viewBox="0 0 32 32" fill="currentColor" aria-hidden="true">
  <path d="M22.4 8.6c-1.1-1.3-2.7-2.1-4.6-2.1c-1.6 0-3 0.5-4.1 1.4c-1.1 0.9-1.8 2.2-1.8 3.7c0 1.3 0.4 2.3 1.2 3.1c0.8 0.8 1.9 1.4 3.4 1.9l1.8 0.6c1.0 0.3 1.7 0.7 2.1 1.2c0.4 0.4 0.6 1.0 0.6 1.6c0 0.9-0.3 1.7-1.0 2.2c-0.7 0.6-1.6 0.9-2.7 0.9c-1.2 0-2.2-0.3-3.0-1.0c-0.7-0.6-1.1-1.4-1.2-2.4l-2.6 0.5c0.2 1.6 0.9 2.9 2.1 3.9c1.2 1.0 2.8 1.5 4.7 1.5c1.8 0 3.4-0.5 4.6-1.6c1.2-1.1 1.8-2.5 1.8-4.1c0-1.3-0.4-2.4-1.2-3.2c-0.8-0.8-2.0-1.5-3.6-2.0l-1.7-0.5c-1.0-0.3-1.7-0.7-2.1-1.1c-0.4-0.4-0.5-0.9-0.5-1.5c0-0.8 0.3-1.4 0.9-1.9c0.6-0.5 1.4-0.7 2.4-0.7c1.0 0 1.8 0.3 2.5 0.8c0.6 0.5 1.0 1.1 1.2 1.9l2.5-0.6C24.0 10.3 23.4 9.3 22.4 8.6z"/>
</svg>
